PathFileType	4	(X/Y/Z)	C:\Users\WrightLab\Desktop\Jo\P5V24.trc
DataRate	CameraRate	NumFrames	NumMarkers	Units	OrigDataRate	OrigDataStartFrame	OrigNumFrames
100.00	100.00	      18	19	mm	100.00	146	      1161
Frame#	Time	Headset_Front			Headset_Back			Headset_Left			Headset_Right			Left_Shoulder			Right_Shoulder			Sternum			C7			Left Elbow			Right Elbow			Left Wrist			Right Wrist			Left ASIS			Right ASIS			S2			Left Knee			Right Knee			Left Ankle			Right Ankle			
		X1	Y1	Z1	X2	Y2	Z2	X3	Y3	Z3	X4	Y4	Z4	X5	Y5	Z5	X6	Y6	Z6	X7	Y7	Z7	X8	Y8	Z8	X9	Y9	Z9	X10	Y10	Z10	X11	Y11	Z11	X12	Y12	Z12	X13	Y13	Z13	X14	Y14	Z14	X15	Y15	Z15	X16	Y16	Z16	X17	Y17	Z17	X18	Y18	Z18	X19	Y19	Z19	

146	1.450										-345.16718	1550.68091	-1053.23743	-229.23090	1302.48120	-1146.29980													-531.69531	1169.31836	-1263.11121	-65.69954	1286.86475	-1195.22864	-511.66522	1006.59015	-1085.20642	-108.77280	909.54272	-1141.39526	-376.70517	935.62402	-1127.88684				-78.01166	471.45996	-1179.72925	-442.73724	475.91913	-1181.19702				-429.68164	71.87189	-1257.64185	
147	1.460										-344.67017	1550.47571	-1052.89209	-229.04031	1301.94299	-1146.17920													-531.42694	1169.22656	-1262.35193	-63.73599	1286.86035	-1194.01135	-512.15485	1007.08875	-1084.43970	-108.62343	909.54858	-1141.29053	-376.20056	934.83649	-1128.85413				-77.69371	471.31140	-1178.46033	-441.28128	475.91312	-1179.12817				-429.74985	73.87640	-1257.08228	
148	1.470										-344.13235	1550.50549	-1052.78772	-227.94286	1301.59082	-1146.14868													-530.99609	1169.43372	-1261.44116	-62.85193	1286.89905	-1193.73206	-511.69824	1007.29169	-1084.01355	-108.42467	909.55847	-1141.15100	-376.12842	934.96924	-1127.69116				-77.56563	471.18924	-1177.65491	-440.00586	476.79541	-1177.57092				-430.54144	75.72361	-1253.46167	
149	1.480										-343.56088	1550.43335	-1052.24231	-227.90382	1301.58594	-1145.64429													-530.35345	1169.46826	-1261.01038	-61.48978	1286.15674	-1193.32397	-511.12674	1006.94073	-1082.26892	-108.22496	909.57343	-1141.01099	-376.15582	934.54309	-1128.83740				-77.37636	471.04504	-1176.67834	-435.64505	476.35452	-1174.14111				-431.12582	77.93829	-1248.95300	
150	1.490										-343.04385	1550.32385	-1051.79919	-225.38095	1300.47949	-1144.80103													-529.92023	1169.78015	-1260.60388	-61.26793	1286.43628	-1192.01489	-511.34885	1007.61505	-1080.37354	-107.49057	908.46130	-1142.18665	-375.77954	933.90173	-1130.63171				-76.87057	470.99731	-1175.88940	-433.52405	477.68817	-1171.81873				-430.95975	78.53719	-1248.31067	
151	1.500										-342.51355	1549.96167	-1050.53247	-225.03793	1299.97705	-1143.69507													-529.56799	1169.68921	-1259.75537	-60.44287	1286.04761	-1191.64453	-511.69885	1007.45569	-1080.31824	-106.59519	907.95166	-1141.72131	-375.22223	933.70605	-1129.30505				-76.99377	470.75641	-1175.39490	-428.70123	476.89459	-1167.29700				-430.76379	79.34932	-1247.57715	
152	1.510										-342.13504	1549.73657	-1050.28979	-225.07352	1299.79700	-1142.94995													-529.15546	1169.59912	-1258.71570	-60.19894	1285.29968	-1190.19409	-511.44785	1007.88647	-1079.64978	-105.66288	907.03351	-1142.01526	-374.61368	933.33313	-1128.25415				-77.28318	470.43466	-1173.21875	-425.48590	477.44000	-1163.54565				-430.31018	80.58168	-1245.71851	
153	1.520										-341.78992	1549.32727	-1049.42175	-225.14349	1299.63794	-1142.76038													-528.88910	1169.35486	-1257.98438	-59.97125	1285.65125	-1189.35010	-511.04248	1007.63324	-1079.19714	-105.27456	906.35510	-1142.50574	-372.94843	932.70996	-1128.28149				-77.82906	470.68817	-1172.15771	-420.52725	477.20331	-1159.00256				-430.63495	84.49868	-1242.26746	
154	1.530										-341.33304	1549.38086	-1048.52441	-225.48639	1299.76843	-1142.07471													-528.49561	1169.30225	-1257.41052	-59.18474	1284.11658	-1188.22705	-511.47769	1007.82452	-1078.62585	-104.21027	905.66016	-1142.03760	-372.44684	932.06360	-1127.50378				-77.74397	470.27225	-1170.93274	-417.23636	477.69098	-1154.44861				-429.25980	83.72183	-1245.28906	
155	1.540										-341.03503	1549.06555	-1047.36072	-224.76720	1299.07153	-1140.70520													-528.14685	1168.77161	-1256.01978	-59.19376	1283.94775	-1187.04883	-510.82361	1007.65680	-1077.87952	-104.04358	905.02704	-1141.80212	-371.28006	932.21344	-1126.73474				-77.17574	470.49509	-1170.13672	-415.48199	479.99982	-1148.78809				-428.77039	85.01921	-1245.18652	
156	1.550										-340.77942	1548.86206	-1046.57300	-223.52695	1297.87085	-1139.74609													-527.89740	1168.64673	-1255.02100	-58.25977	1283.42761	-1185.38977	-511.06854	1006.87244	-1075.25269	-103.07819	903.45300	-1140.09241	-370.94937	931.89288	-1126.51086				-76.43172	470.44504	-1169.34229	-414.47586	482.63327	-1142.40100				-427.94485	85.44719	-1247.20081	
157	1.560										-340.44016	1549.02283	-1045.39978	-223.49742	1297.84912	-1139.24060													-527.46918	1168.44763	-1254.23682	-57.25901	1282.76453	-1184.14612	-510.52957	1006.49652	-1074.37097	-102.85532	903.13782	-1139.96008	-370.77283	929.80817	-1131.81909				-76.56674	469.88007	-1168.53210	-413.40179	484.69760	-1134.39917				-427.85440	89.84944	-1243.87134	
158	1.570										-340.24408	1548.55261	-1043.54260	-222.43561	1297.40100	-1137.02722													-527.33636	1168.33545	-1252.77466	-56.64524	1282.52930	-1182.72095	-510.35779	1006.73730	-1073.56250	-102.82468	902.79620	-1138.98083	-371.29663	929.84253	-1127.68201				-77.18148	469.81317	-1166.19299	-411.64758	486.59991	-1125.74976				-427.37173	92.71429	-1244.13379	
159	1.580										-340.01071	1548.66821	-1042.20850	-222.13448	1297.03589	-1136.69824													-527.03015	1168.06213	-1251.53870	-56.70640	1282.16809	-1180.90698	-510.70374	1006.16003	-1073.56018	-102.71615	902.73798	-1138.90283	-370.92047	930.00977	-1124.29150				-77.06708	469.78027	-1165.12830	-411.07355	486.22556	-1116.80078				-427.39325	94.81634	-1241.64563	
160	1.590										-339.86227	1548.69507	-1040.94043	-221.97791	1296.97949	-1134.39221													-527.09192	1167.88599	-1249.97974	-55.12169	1281.76160	-1179.54749	-510.56134	1006.39276	-1071.97571	-102.49171	901.87299	-1136.86035	-371.11356	929.38489	-1122.58215				-76.85796	470.10480	-1164.67664	-411.32822	488.22333	-1107.17285				-426.70642	96.88507	-1239.41260	
161	1.600										-339.79639	1548.60730	-1039.15210	-222.84648	1296.64038	-1133.76025													-527.06494	1167.82788	-1248.70471	-55.14758	1281.50049	-1177.88806	-510.51270	1005.75415	-1069.66455	-102.10111	901.34711	-1136.63733	-370.94586	928.99139	-1122.24060				-76.48451	470.28857	-1164.15918	-409.72742	489.15375	-1097.44897				-424.90076	101.58871	-1238.24719	
162	1.610										-339.78162	1548.48633	-1037.54846	-222.93001	1296.30579	-1131.58044													-526.88611	1167.96045	-1246.90295	-53.98662	1280.95496	-1175.46436	-510.17697	1005.81799	-1068.88318	-102.11823	900.97235	-1136.60864	-370.77115	929.45111	-1120.21179				-76.73620	470.55762	-1162.75610	-409.40381	491.03458	-1088.45435				-423.30734	105.14409	-1231.52356	
163	1.620										-339.77420	1548.53394	-1035.69238	-223.45125	1296.54907	-1130.48535													-526.73151	1168.31238	-1245.79980	-53.80256	1281.10803	-1173.72449	-509.89316	1004.76263	-1066.87219	-102.11927	900.91034	-1136.60754	-370.61826	929.35480	-1119.29187				-77.23711	471.02582	-1161.98364	-407.99677	494.45822	-1079.03064				-423.30109	109.62215	-1222.80664	
